<svg xmlns="http://www.w3.org/2000/svg" xmlns:xlink="http://www.w3.org/1999/xlink" width="500" zoomAndPan="magnify" viewBox="0 0 375 74.999997" height="100" preserveAspectRatio="xMidYMid meet" version="1.0"><defs><filter x="0%" y="0%" width="100%" height="100%" id="3e23bb6699"><feColorMatrix values="0 0 0 0 1 0 0 0 0 1 0 0 0 0 1 0 0 0 1 0" color-interpolation-filters="sRGB"/></filter><g/><clipPath id="64738759a8"><path d="M 2.21875 0 L 354 0 L 354 75 L 2.21875 75 Z M 2.21875 0 " clip-rule="nonzero"/></clipPath><clipPath id="5384b6baee"><path d="M 0.21875 0 L 352 0 L 352 75 L 0.21875 75 Z M 0.21875 0 " clip-rule="nonzero"/></clipPath><clipPath id="69d10e68ea"><path d="M 0.222656 0 L 352 0 L 352 75 L 0.222656 75 Z M 0.222656 0 " clip-rule="nonzero"/></clipPath><linearGradient x1="65.805" gradientTransform="matrix(1.876907, 0, 0, 1.872618, 90.465842, 15.676177)" y1="-8.371263" x2="65.805" gradientUnits="userSpaceOnUse" y2="31.679614" id="0b7e556b3f"><stop stop-opacity="1" stop-color="rgb(47.839355%, 96.469116%, 93.328857%)" offset="0"/><stop stop-opacity="1" stop-color="rgb(47.839355%, 96.469116%, 93.328857%)" offset="0.25"/><stop stop-opacity="1" stop-color="rgb(47.839355%, 96.469116%, 93.328857%)" offset="0.257812"/><stop stop-opacity="1" stop-color="rgb(48.048401%, 96.485901%, 93.359375%)" offset="0.261719"/><stop stop-opacity="1" stop-color="rgb(48.258972%, 96.502686%, 93.389893%)" offset="0.265625"/><stop stop-opacity="1" stop-color="rgb(48.503113%, 96.522522%, 93.424988%)" offset="0.269531"/><stop stop-opacity="1" stop-color="rgb(48.748779%, 96.542358%, 93.460083%)" offset="0.273438"/><stop stop-opacity="1" stop-color="rgb(48.994446%, 96.562195%, 93.495178%)" offset="0.277344"/><stop stop-opacity="1" stop-color="rgb(49.240112%, 96.582031%, 93.530273%)" offset="0.28125"/><stop stop-opacity="1" stop-color="rgb(49.485779%, 96.601868%, 93.565369%)" offset="0.285156"/><stop stop-opacity="1" stop-color="rgb(49.731445%, 96.621704%, 93.600464%)" offset="0.289062"/><stop stop-opacity="1" stop-color="rgb(49.975586%, 96.641541%, 93.635559%)" offset="0.292969"/><stop stop-opacity="1" stop-color="rgb(50.221252%, 96.661377%, 93.670654%)" offset="0.296875"/><stop stop-opacity="1" stop-color="rgb(50.466919%, 96.679688%, 93.704224%)" offset="0.300781"/><stop stop-opacity="1" stop-color="rgb(50.712585%, 96.699524%, 93.739319%)" offset="0.304688"/><stop stop-opacity="1" stop-color="rgb(50.958252%, 96.71936%, 93.774414%)" offset="0.308594"/><stop stop-opacity="1" stop-color="rgb(51.203918%, 96.739197%, 93.809509%)" offset="0.3125"/><stop stop-opacity="1" stop-color="rgb(51.448059%, 96.759033%, 93.844604%)" offset="0.316406"/><stop stop-opacity="1" stop-color="rgb(51.693726%, 96.77887%, 93.8797%)" offset="0.320312"/><stop stop-opacity="1" stop-color="rgb(51.939392%, 96.798706%, 93.914795%)" offset="0.324219"/><stop stop-opacity="1" stop-color="rgb(52.185059%, 96.818542%, 93.94989%)" offset="0.328125"/><stop stop-opacity="1" stop-color="rgb(52.430725%, 96.838379%, 93.984985%)" offset="0.332031"/><stop stop-opacity="1" stop-color="rgb(52.676392%, 96.858215%, 94.020081%)" offset="0.335937"/><stop stop-opacity="1" stop-color="rgb(52.920532%, 96.878052%, 94.055176%)" offset="0.339844"/><stop stop-opacity="1" stop-color="rgb(53.166199%, 96.897888%, 94.090271%)" offset="0.34375"/><stop stop-opacity="1" stop-color="rgb(53.411865%, 96.917725%, 94.125366%)" offset="0.347656"/><stop stop-opacity="1" stop-color="rgb(53.657532%, 96.937561%, 94.160461%)" offset="0.351562"/><stop stop-opacity="1" stop-color="rgb(53.901672%, 96.955872%, 94.195557%)" offset="0.355469"/><stop stop-opacity="1" stop-color="rgb(54.147339%, 96.975708%, 94.230652%)" offset="0.359375"/><stop stop-opacity="1" stop-color="rgb(54.393005%, 96.995544%, 94.265747%)" offset="0.363281"/><stop stop-opacity="1" stop-color="rgb(54.638672%, 97.015381%, 94.300842%)" offset="0.367187"/><stop stop-opacity="1" stop-color="rgb(54.884338%, 97.035217%, 94.335938%)" offset="0.371094"/><stop stop-opacity="1" stop-color="rgb(55.130005%, 97.055054%, 94.371033%)" offset="0.375"/><stop stop-opacity="1" stop-color="rgb(55.374146%, 97.07489%, 94.406128%)" offset="0.378906"/><stop stop-opacity="1" stop-color="rgb(55.619812%, 97.094727%, 94.441223%)" offset="0.382812"/><stop stop-opacity="1" stop-color="rgb(55.865479%, 97.114563%, 94.476318%)" offset="0.386719"/><stop stop-opacity="1" stop-color="rgb(56.111145%, 97.134399%, 94.511414%)" offset="0.390625"/><stop stop-opacity="1" stop-color="rgb(56.356812%, 97.154236%, 94.546509%)" offset="0.394531"/><stop stop-opacity="1" stop-color="rgb(56.602478%, 97.174072%, 94.581604%)" offset="0.398437"/><stop stop-opacity="1" stop-color="rgb(56.846619%, 97.193909%, 94.616699%)" offset="0.402344"/><stop stop-opacity="1" stop-color="rgb(57.092285%, 97.213745%, 94.651794%)" offset="0.40625"/><stop stop-opacity="1" stop-color="rgb(57.337952%, 97.232056%, 94.68689%)" offset="0.410156"/><stop stop-opacity="1" stop-color="rgb(57.583618%, 97.251892%, 94.721985%)" offset="0.414062"/><stop stop-opacity="1" stop-color="rgb(57.829285%, 97.271729%, 94.75708%)" offset="0.417969"/><stop stop-opacity="1" stop-color="rgb(58.074951%, 97.291565%, 94.792175%)" offset="0.421875"/><stop stop-opacity="1" stop-color="rgb(58.319092%, 97.311401%, 94.827271%)" offset="0.425781"/><stop stop-opacity="1" stop-color="rgb(58.564758%, 97.331238%, 94.862366%)" offset="0.429688"/><stop stop-opacity="1" stop-color="rgb(58.810425%, 97.351074%, 94.897461%)" offset="0.433594"/><stop stop-opacity="1" stop-color="rgb(59.056091%, 97.370911%, 94.932556%)" offset="0.4375"/><stop stop-opacity="1" stop-color="rgb(59.301758%, 97.390747%, 94.967651%)" offset="0.441406"/><stop stop-opacity="1" stop-color="rgb(59.547424%, 97.410583%, 95.002747%)" offset="0.445312"/><stop stop-opacity="1" stop-color="rgb(59.791565%, 97.43042%, 95.037842%)" offset="0.449219"/><stop stop-opacity="1" stop-color="rgb(60.037231%, 97.450256%, 95.072937%)" offset="0.453125"/><stop stop-opacity="1" stop-color="rgb(60.282898%, 97.468567%, 95.108032%)" offset="0.457031"/><stop stop-opacity="1" stop-color="rgb(60.528564%, 97.488403%, 95.143127%)" offset="0.460938"/><stop stop-opacity="1" stop-color="rgb(60.774231%, 97.50824%, 95.178223%)" offset="0.464844"/><stop stop-opacity="1" stop-color="rgb(61.019897%, 97.528076%, 95.213318%)" offset="0.46875"/><stop stop-opacity="1" stop-color="rgb(61.264038%, 97.547913%, 95.248413%)" offset="0.472656"/><stop stop-opacity="1" stop-color="rgb(61.509705%, 97.567749%, 95.283508%)" offset="0.476562"/><stop stop-opacity="1" stop-color="rgb(61.755371%, 97.587585%, 95.318604%)" offset="0.480469"/><stop stop-opacity="1" stop-color="rgb(62.001038%, 97.607422%, 95.353699%)" offset="0.484375"/><stop stop-opacity="1" stop-color="rgb(62.246704%, 97.627258%, 95.388794%)" offset="0.488281"/><stop stop-opacity="1" stop-color="rgb(62.492371%, 97.647095%, 95.423889%)" offset="0.492187"/><stop stop-opacity="1" stop-color="rgb(62.736511%, 97.666931%, 95.458984%)" offset="0.496094"/><stop stop-opacity="1" stop-color="rgb(62.982178%, 97.686768%, 95.49408%)" offset="0.5"/><stop stop-opacity="1" stop-color="rgb(63.227844%, 97.706604%, 95.529175%)" offset="0.503906"/><stop stop-opacity="1" stop-color="rgb(63.473511%, 97.72644%, 95.56427%)" offset="0.507812"/><stop stop-opacity="1" stop-color="rgb(63.719177%, 97.744751%, 95.599365%)" offset="0.511719"/><stop stop-opacity="1" stop-color="rgb(63.964844%, 97.764587%, 95.63446%)" offset="0.515625"/><stop stop-opacity="1" stop-color="rgb(64.208984%, 97.784424%, 95.669556%)" offset="0.519531"/><stop stop-opacity="1" stop-color="rgb(64.454651%, 97.80426%, 95.704651%)" offset="0.523438"/><stop stop-opacity="1" stop-color="rgb(64.700317%, 97.824097%, 95.739746%)" offset="0.527344"/><stop stop-opacity="1" stop-color="rgb(64.945984%, 97.843933%, 95.774841%)" offset="0.53125"/><stop stop-opacity="1" stop-color="rgb(65.190125%, 97.86377%, 95.809937%)" offset="0.535156"/><stop stop-opacity="1" stop-color="rgb(65.435791%, 97.883606%, 95.845032%)" offset="0.539062"/><stop stop-opacity="1" stop-color="rgb(65.681458%, 97.903442%, 95.880127%)" offset="0.542969"/><stop stop-opacity="1" stop-color="rgb(65.927124%, 97.923279%, 95.915222%)" offset="0.546875"/><stop stop-opacity="1" stop-color="rgb(66.172791%, 97.943115%, 95.950317%)" offset="0.550781"/><stop stop-opacity="1" stop-color="rgb(66.418457%, 97.962952%, 95.985413%)" offset="0.554688"/><stop stop-opacity="1" stop-color="rgb(66.662598%, 97.982788%, 96.020508%)" offset="0.558594"/><stop stop-opacity="1" stop-color="rgb(66.908264%, 98.002625%, 96.055603%)" offset="0.5625"/><stop stop-opacity="1" stop-color="rgb(67.153931%, 98.020935%, 96.090698%)" offset="0.566406"/><stop stop-opacity="1" stop-color="rgb(67.399597%, 98.040771%, 96.125793%)" offset="0.570312"/><stop stop-opacity="1" stop-color="rgb(67.645264%, 98.060608%, 96.160889%)" offset="0.574219"/><stop stop-opacity="1" stop-color="rgb(67.89093%, 98.080444%, 96.195984%)" offset="0.578125"/><stop stop-opacity="1" stop-color="rgb(68.135071%, 98.100281%, 96.231079%)" offset="0.582031"/><stop stop-opacity="1" stop-color="rgb(68.380737%, 98.120117%, 96.266174%)" offset="0.585938"/><stop stop-opacity="1" stop-color="rgb(68.626404%, 98.139954%, 96.30127%)" offset="0.589844"/><stop stop-opacity="1" stop-color="rgb(68.87207%, 98.15979%, 96.336365%)" offset="0.59375"/><stop stop-opacity="1" stop-color="rgb(69.117737%, 98.179626%, 96.37146%)" offset="0.597656"/><stop stop-opacity="1" stop-color="rgb(69.363403%, 98.199463%, 96.406555%)" offset="0.601562"/><stop stop-opacity="1" stop-color="rgb(69.607544%, 98.219299%, 96.44165%)" offset="0.605469"/><stop stop-opacity="1" stop-color="rgb(69.85321%, 98.239136%, 96.476746%)" offset="0.609375"/><stop stop-opacity="1" stop-color="rgb(70.098877%, 98.258972%, 96.511841%)" offset="0.613281"/><stop stop-opacity="1" stop-color="rgb(70.344543%, 98.278809%, 96.546936%)" offset="0.617187"/><stop stop-opacity="1" stop-color="rgb(70.59021%, 98.297119%, 96.582031%)" offset="0.621094"/><stop stop-opacity="1" stop-color="rgb(70.835876%, 98.316956%, 96.617126%)" offset="0.625"/><stop stop-opacity="1" stop-color="rgb(71.080017%, 98.336792%, 96.652222%)" offset="0.628906"/><stop stop-opacity="1" stop-color="rgb(71.325684%, 98.356628%, 96.687317%)" offset="0.632812"/><stop stop-opacity="1" stop-color="rgb(71.57135%, 98.376465%, 96.722412%)" offset="0.636719"/><stop stop-opacity="1" stop-color="rgb(71.817017%, 98.396301%, 96.757507%)" offset="0.640625"/><stop stop-opacity="1" stop-color="rgb(72.062683%, 98.416138%, 96.792603%)" offset="0.644531"/><stop stop-opacity="1" stop-color="rgb(72.30835%, 98.435974%, 96.827698%)" offset="0.648438"/><stop stop-opacity="1" stop-color="rgb(72.55249%, 98.455811%, 96.862793%)" offset="0.652344"/><stop stop-opacity="1" stop-color="rgb(72.798157%, 98.475647%, 96.897888%)" offset="0.65625"/><stop stop-opacity="1" stop-color="rgb(73.043823%, 98.495483%, 96.932983%)" offset="0.660156"/><stop stop-opacity="1" stop-color="rgb(73.28949%, 98.51532%, 96.968079%)" offset="0.664062"/><stop stop-opacity="1" stop-color="rgb(73.535156%, 98.53363%, 97.003174%)" offset="0.667969"/><stop stop-opacity="1" stop-color="rgb(73.780823%, 98.553467%, 97.038269%)" offset="0.671875"/><stop stop-opacity="1" stop-color="rgb(74.024963%, 98.573303%, 97.073364%)" offset="0.675781"/><stop stop-opacity="1" stop-color="rgb(74.27063%, 98.59314%, 97.108459%)" offset="0.679688"/><stop stop-opacity="1" stop-color="rgb(74.516296%, 98.612976%, 97.143555%)" offset="0.683594"/><stop stop-opacity="1" stop-color="rgb(74.761963%, 98.632812%, 97.17865%)" offset="0.6875"/><stop stop-opacity="1" stop-color="rgb(75.007629%, 98.652649%, 97.213745%)" offset="0.691406"/><stop stop-opacity="1" stop-color="rgb(75.253296%, 98.672485%, 97.24884%)" offset="0.695312"/><stop stop-opacity="1" stop-color="rgb(75.497437%, 98.692322%, 97.283936%)" offset="0.699219"/><stop stop-opacity="1" stop-color="rgb(75.743103%, 98.712158%, 97.319031%)" offset="0.703125"/><stop stop-opacity="1" stop-color="rgb(75.98877%, 98.731995%, 97.354126%)" offset="0.707031"/><stop stop-opacity="1" stop-color="rgb(76.234436%, 98.751831%, 97.389221%)" offset="0.710937"/><stop stop-opacity="1" stop-color="rgb(76.478577%, 98.771667%, 97.424316%)" offset="0.714844"/><stop stop-opacity="1" stop-color="rgb(76.724243%, 98.791504%, 97.459412%)" offset="0.71875"/><stop stop-opacity="1" stop-color="rgb(76.96991%, 98.809814%, 97.494507%)" offset="0.722656"/><stop stop-opacity="1" stop-color="rgb(77.215576%, 98.829651%, 97.529602%)" offset="0.726562"/><stop stop-opacity="1" stop-color="rgb(77.461243%, 98.849487%, 97.564697%)" offset="0.730469"/><stop stop-opacity="1" stop-color="rgb(77.706909%, 98.869324%, 97.599792%)" offset="0.734375"/><stop stop-opacity="1" stop-color="rgb(77.95105%, 98.88916%, 97.634888%)" offset="0.738281"/><stop stop-opacity="1" stop-color="rgb(78.196716%, 98.908997%, 97.669983%)" offset="0.742187"/><stop stop-opacity="1" stop-color="rgb(78.442383%, 98.928833%, 97.705078%)" offset="0.746094"/><stop stop-opacity="1" stop-color="rgb(78.688049%, 98.948669%, 97.740173%)" offset="0.75"/><stop stop-opacity="1" stop-color="rgb(78.933716%, 98.968506%, 97.775269%)" offset="0.753906"/><stop stop-opacity="1" stop-color="rgb(79.179382%, 98.988342%, 97.810364%)" offset="0.757812"/><stop stop-opacity="1" stop-color="rgb(79.423523%, 99.008179%, 97.845459%)" offset="0.761719"/><stop stop-opacity="1" stop-color="rgb(79.669189%, 99.028015%, 97.880554%)" offset="0.765625"/><stop stop-opacity="1" stop-color="rgb(79.914856%, 99.047852%, 97.915649%)" offset="0.769531"/><stop stop-opacity="1" stop-color="rgb(80.160522%, 99.067688%, 97.950745%)" offset="0.773438"/><stop stop-opacity="1" stop-color="rgb(80.406189%, 99.085999%, 97.98584%)" offset="0.777344"/><stop stop-opacity="1" stop-color="rgb(80.651855%, 99.105835%, 98.020935%)" offset="0.78125"/><stop stop-opacity="1" stop-color="rgb(80.895996%, 99.125671%, 98.05603%)" offset="0.785156"/><stop stop-opacity="1" stop-color="rgb(81.141663%, 99.145508%, 98.091125%)" offset="0.789062"/><stop stop-opacity="1" stop-color="rgb(81.387329%, 99.165344%, 98.126221%)" offset="0.792969"/><stop stop-opacity="1" stop-color="rgb(81.632996%, 99.185181%, 98.161316%)" offset="0.796875"/><stop stop-opacity="1" stop-color="rgb(81.878662%, 99.205017%, 98.196411%)" offset="0.800781"/><stop stop-opacity="1" stop-color="rgb(82.124329%, 99.224854%, 98.231506%)" offset="0.804688"/><stop stop-opacity="1" stop-color="rgb(82.368469%, 99.24469%, 98.266602%)" offset="0.808594"/><stop stop-opacity="1" stop-color="rgb(82.614136%, 99.264526%, 98.301697%)" offset="0.8125"/><stop stop-opacity="1" stop-color="rgb(82.859802%, 99.284363%, 98.336792%)" offset="0.816406"/><stop stop-opacity="1" stop-color="rgb(83.105469%, 99.304199%, 98.371887%)" offset="0.820312"/><stop stop-opacity="1" stop-color="rgb(83.351135%, 99.324036%, 98.406982%)" offset="0.824219"/><stop stop-opacity="1" stop-color="rgb(83.596802%, 99.343872%, 98.442078%)" offset="0.828125"/><stop stop-opacity="1" stop-color="rgb(83.840942%, 99.362183%, 98.477173%)" offset="0.832031"/><stop stop-opacity="1" stop-color="rgb(84.086609%, 99.382019%, 98.512268%)" offset="0.835937"/><stop stop-opacity="1" stop-color="rgb(84.332275%, 99.401855%, 98.547363%)" offset="0.839844"/><stop stop-opacity="1" stop-color="rgb(84.577942%, 99.421692%, 98.582458%)" offset="0.84375"/><stop stop-opacity="1" stop-color="rgb(84.823608%, 99.441528%, 98.617554%)" offset="0.847656"/><stop stop-opacity="1" stop-color="rgb(85.069275%, 99.461365%, 98.652649%)" offset="0.851562"/><stop stop-opacity="1" stop-color="rgb(85.313416%, 99.481201%, 98.687744%)" offset="0.855469"/><stop stop-opacity="1" stop-color="rgb(85.559082%, 99.501038%, 98.722839%)" offset="0.859375"/><stop stop-opacity="1" stop-color="rgb(85.804749%, 99.520874%, 98.757935%)" offset="0.863281"/><stop stop-opacity="1" stop-color="rgb(86.050415%, 99.54071%, 98.79303%)" offset="0.867187"/><stop stop-opacity="1" stop-color="rgb(86.296082%, 99.560547%, 98.828125%)" offset="0.871094"/><stop stop-opacity="1" stop-color="rgb(86.541748%, 99.580383%, 98.86322%)" offset="0.875"/><stop stop-opacity="1" stop-color="rgb(86.785889%, 99.598694%, 98.898315%)" offset="0.878906"/><stop stop-opacity="1" stop-color="rgb(87.031555%, 99.61853%, 98.933411%)" offset="0.882812"/><stop stop-opacity="1" stop-color="rgb(87.277222%, 99.638367%, 98.968506%)" offset="0.886719"/><stop stop-opacity="1" stop-color="rgb(87.522888%, 99.658203%, 99.003601%)" offset="0.890625"/><stop stop-opacity="1" stop-color="rgb(87.767029%, 99.67804%, 99.038696%)" offset="0.894531"/><stop stop-opacity="1" stop-color="rgb(88.012695%, 99.697876%, 99.073792%)" offset="0.898438"/><stop stop-opacity="1" stop-color="rgb(88.258362%, 99.717712%, 99.108887%)" offset="0.902344"/><stop stop-opacity="1" stop-color="rgb(88.504028%, 99.737549%, 99.143982%)" offset="0.90625"/><stop stop-opacity="1" stop-color="rgb(88.749695%, 99.757385%, 99.179077%)" offset="0.910156"/><stop stop-opacity="1" stop-color="rgb(88.995361%, 99.777222%, 99.214172%)" offset="0.914062"/><stop stop-opacity="1" stop-color="rgb(89.239502%, 99.797058%, 99.249268%)" offset="0.917969"/><stop stop-opacity="1" stop-color="rgb(89.485168%, 99.816895%, 99.284363%)" offset="0.921875"/><stop stop-opacity="1" stop-color="rgb(89.730835%, 99.836731%, 99.319458%)" offset="0.925781"/><stop stop-opacity="1" stop-color="rgb(89.976501%, 99.856567%, 99.354553%)" offset="0.929688"/><stop stop-opacity="1" stop-color="rgb(90.222168%, 99.874878%, 99.389648%)" offset="0.933594"/><stop stop-opacity="1" stop-color="rgb(90.467834%, 99.894714%, 99.424744%)" offset="0.9375"/><stop stop-opacity="1" stop-color="rgb(90.711975%, 99.914551%, 99.459839%)" offset="0.941406"/><stop stop-opacity="1" stop-color="rgb(90.957642%, 99.934387%, 99.494934%)" offset="0.945312"/><stop stop-opacity="1" stop-color="rgb(91.203308%, 99.954224%, 99.530029%)" offset="0.949219"/><stop stop-opacity="1" stop-color="rgb(91.448975%, 99.97406%, 99.565125%)" offset="0.953125"/><stop stop-opacity="1" stop-color="rgb(91.603088%, 99.986267%, 99.586487%)" offset="0.96875"/><stop stop-opacity="1" stop-color="rgb(91.758728%, 100%, 99.609375%)" offset="1"/></linearGradient><clipPath id="f5fefccac1"><rect x="0" width="352" y="0" height="75"/></clipPath><clipPath id="45611ab3bd"><path d="M 0.21875 0 L 352 0 L 352 75 L 0.21875 75 Z M 0.21875 0 " clip-rule="nonzero"/></clipPath><clipPath id="ea41129a62"><rect x="0" width="352" y="0" height="75"/></clipPath><clipPath id="aef0b25244"><rect x="0" width="352" y="0" height="75"/></clipPath><mask id="d830ff783a"><g filter="url(#3e23bb6699)"><g transform="matrix(1, 0, 0, 1, 0.000000000000003553, -0.000000000000001893)"><g clip-path="url(#aef0b25244)"><g clip-path="url(#45611ab3bd)"><g transform="matrix(1, 0, 0, 1, 0.000000000000003553, -0.000000000000001893)"><g clip-path="url(#ea41129a62)"><g fill="#000000" fill-opacity="1"><g transform="translate(90.221508, 60.637515)"><g><path d="M 20.953125 -6.609375 L 9.375 -6.609375 L 7.171875 0 L 0.15625 0 L 12.078125 -32.046875 L 18.203125 -32.046875 L 30.203125 0 L 23.171875 0 Z M 11.15625 -11.953125 L 19.171875 -11.953125 L 15.140625 -23.953125 Z M 11.15625 -11.953125 "/></g></g></g><g fill="#000000" fill-opacity="1"><g transform="translate(120.165878, 60.637515)"><g><path d="M 10.0625 -29.671875 L 10.0625 -23.8125 L 14.125 -23.8125 L 14.125 -19.15625 L 10.0625 -19.15625 L 10.0625 -7.265625 C 10.0625 -6.378906 10.226562 -5.742188 10.5625 -5.359375 C 10.90625 -4.984375 11.550781 -4.796875 12.5 -4.796875 C 13.207031 -4.796875 13.832031 -4.847656 14.375 -4.953125 L 14.375 -0.125 C 13.125 0.25 11.835938 0.4375 10.515625 0.4375 C 6.054688 0.4375 3.785156 -1.8125 3.703125 -6.3125 L 3.703125 -19.15625 L 0.21875 -19.15625 L 0.21875 -23.8125 L 3.703125 -23.8125 L 3.703125 -29.671875 Z M 10.0625 -29.671875 "/></g></g></g><g fill="#000000" fill-opacity="1"><g transform="translate(135.391155, 60.637515)"><g><path d="M 8.40625 -23.8125 L 8.609375 -21.15625 C 10.296875 -23.21875 12.578125 -24.25 15.453125 -24.25 C 18.515625 -24.25 20.617188 -23.039062 21.765625 -20.625 C 23.441406 -23.039062 25.828125 -24.25 28.921875 -24.25 C 31.503906 -24.25 33.425781 -23.5 34.6875 -22 C 35.945312 -20.5 36.578125 -18.234375 36.578125 -15.203125 L 36.578125 0 L 30.203125 0 L 30.203125 -15.1875 C 30.203125 -16.539062 29.9375 -17.523438 29.40625 -18.140625 C 28.875 -18.765625 27.941406 -19.078125 26.609375 -19.078125 C 24.703125 -19.078125 23.382812 -18.171875 22.65625 -16.359375 L 22.671875 0 L 16.3125 0 L 16.3125 -15.171875 C 16.3125 -16.546875 16.039062 -17.539062 15.5 -18.15625 C 14.957031 -18.769531 14.03125 -19.078125 12.71875 -19.078125 C 10.914062 -19.078125 9.609375 -18.332031 8.796875 -16.84375 L 8.796875 0 L 2.4375 0 L 2.4375 -23.8125 Z M 8.40625 -23.8125 "/></g></g></g><g fill="#000000" fill-opacity="1"><g transform="translate(174.400429, 60.637515)"><g><path d="M 1.453125 -12.125 C 1.453125 -14.488281 1.90625 -16.59375 2.8125 -18.4375 C 3.726562 -20.289062 5.039062 -21.722656 6.75 -22.734375 C 8.457031 -23.742188 10.441406 -24.25 12.703125 -24.25 C 15.910156 -24.25 18.53125 -23.265625 20.5625 -21.296875 C 22.601562 -19.335938 23.738281 -16.671875 23.96875 -13.296875 L 24.015625 -11.671875 C 24.015625 -8.015625 22.992188 -5.082031 20.953125 -2.875 C 18.910156 -0.664062 16.171875 0.4375 12.734375 0.4375 C 9.304688 0.4375 6.566406 -0.660156 4.515625 -2.859375 C 2.472656 -5.054688 1.453125 -8.050781 1.453125 -11.84375 Z M 7.8125 -11.671875 C 7.8125 -9.410156 8.234375 -7.679688 9.078125 -6.484375 C 9.929688 -5.285156 11.15625 -4.6875 12.75 -4.6875 C 14.289062 -4.6875 15.492188 -5.273438 16.359375 -6.453125 C 17.222656 -7.640625 17.65625 -9.53125 17.65625 -12.125 C 17.65625 -14.34375 17.222656 -16.0625 16.359375 -17.28125 C 15.492188 -18.5 14.273438 -19.109375 12.703125 -19.109375 C 11.140625 -19.109375 9.929688 -18.5 9.078125 -17.28125 C 8.234375 -16.070312 7.8125 -14.203125 7.8125 -11.671875 Z M 7.8125 -11.671875 "/></g></g></g><g fill="#000000" fill-opacity="1"><g transform="translate(199.878567, 60.637515)"><g><path d="M 15.34375 -6.578125 C 15.34375 -7.359375 14.957031 -7.972656 14.1875 -8.421875 C 13.414062 -8.867188 12.179688 -9.269531 10.484375 -9.625 C 4.816406 -10.8125 1.984375 -13.21875 1.984375 -16.84375 C 1.984375 -18.957031 2.859375 -20.71875 4.609375 -22.125 C 6.359375 -23.539062 8.648438 -24.25 11.484375 -24.25 C 14.515625 -24.25 16.929688 -23.535156 18.734375 -22.109375 C 20.546875 -20.691406 21.453125 -18.847656 21.453125 -16.578125 L 15.09375 -16.578125 C 15.09375 -17.484375 14.800781 -18.234375 14.21875 -18.828125 C 13.632812 -19.421875 12.71875 -19.71875 11.46875 -19.71875 C 10.394531 -19.71875 9.5625 -19.472656 8.96875 -18.984375 C 8.382812 -18.503906 8.09375 -17.890625 8.09375 -17.140625 C 8.09375 -16.441406 8.425781 -15.875 9.09375 -15.4375 C 9.769531 -15.007812 10.898438 -14.632812 12.484375 -14.3125 C 14.066406 -14 15.398438 -13.644531 16.484375 -13.25 C 19.847656 -12.019531 21.53125 -9.882812 21.53125 -6.84375 C 21.53125 -4.675781 20.597656 -2.921875 18.734375 -1.578125 C 16.867188 -0.234375 14.460938 0.4375 11.515625 0.4375 C 9.515625 0.4375 7.738281 0.0820312 6.1875 -0.625 C 4.644531 -1.332031 3.429688 -2.304688 2.546875 -3.546875 C 1.671875 -4.796875 1.234375 -6.140625 1.234375 -7.578125 L 7.265625 -7.578125 C 7.328125 -6.441406 7.742188 -5.570312 8.515625 -4.96875 C 9.296875 -4.375 10.335938 -4.078125 11.640625 -4.078125 C 12.859375 -4.078125 13.78125 -4.304688 14.40625 -4.765625 C 15.03125 -5.222656 15.34375 -5.828125 15.34375 -6.578125 Z M 15.34375 -6.578125 "/></g></g></g><g fill="#000000" fill-opacity="1"><g transform="translate(223.046511, 60.637515)"><g><path d="M 26.984375 -26.703125 L 17.171875 -26.703125 L 17.171875 0 L 10.5625 0 L 10.5625 -26.703125 L 0.875 -26.703125 L 0.875 -32.046875 L 26.984375 -32.046875 Z M 26.984375 -26.703125 "/></g></g></g><g fill="#000000" fill-opacity="1"><g transform="translate(249.492216, 60.637515)"><g><path d="M 15.828125 -17.84375 C 14.960938 -17.96875 14.195312 -18.03125 13.53125 -18.03125 C 11.125 -18.03125 9.546875 -17.210938 8.796875 -15.578125 L 8.796875 0 L 2.4375 0 L 2.4375 -23.8125 L 8.453125 -23.8125 L 8.625 -20.96875 C 9.90625 -23.15625 11.675781 -24.25 13.9375 -24.25 C 14.632812 -24.25 15.289062 -24.15625 15.90625 -23.96875 Z M 15.828125 -17.84375 "/></g></g></g><g fill="#000000" fill-opacity="1"><g transform="translate(265.26731, 60.637515)"><g><path d="M 16.25 0 C 15.945312 -0.570312 15.734375 -1.285156 15.609375 -2.140625 C 14.066406 -0.421875 12.0625 0.4375 9.59375 0.4375 C 7.257812 0.4375 5.328125 -0.234375 3.796875 -1.578125 C 2.265625 -2.929688 1.5 -4.632812 1.5 -6.6875 C 1.5 -9.21875 2.429688 -11.15625 4.296875 -12.5 C 6.171875 -13.851562 8.878906 -14.535156 12.421875 -14.546875 L 15.34375 -14.546875 L 15.34375 -15.90625 C 15.34375 -17.007812 15.054688 -17.890625 14.484375 -18.546875 C 13.921875 -19.210938 13.03125 -19.546875 11.8125 -19.546875 C 10.75 -19.546875 9.910156 -19.285156 9.296875 -18.765625 C 8.691406 -18.253906 8.390625 -17.550781 8.390625 -16.65625 L 2.03125 -16.65625 C 2.03125 -18.039062 2.453125 -19.316406 3.296875 -20.484375 C 4.148438 -21.660156 5.351562 -22.582031 6.90625 -23.25 C 8.46875 -23.914062 10.21875 -24.25 12.15625 -24.25 C 15.082031 -24.25 17.40625 -23.507812 19.125 -22.03125 C 20.851562 -20.5625 21.71875 -18.492188 21.71875 -15.828125 L 21.71875 -5.5 C 21.738281 -3.238281 22.054688 -1.53125 22.671875 -0.375 L 22.671875 0 Z M 10.984375 -4.421875 C 11.921875 -4.421875 12.785156 -4.628906 13.578125 -5.046875 C 14.367188 -5.460938 14.957031 -6.023438 15.34375 -6.734375 L 15.34375 -10.828125 L 12.96875 -10.828125 C 9.78125 -10.828125 8.082031 -9.726562 7.875 -7.53125 L 7.859375 -7.15625 C 7.859375 -6.363281 8.132812 -5.707031 8.6875 -5.1875 C 9.25 -4.675781 10.015625 -4.421875 10.984375 -4.421875 Z M 10.984375 -4.421875 "/></g></g></g><g fill="#000000" fill-opacity="1"><g transform="translate(289.425338, 60.637515)"><g><path d="M 12.34375 -4.6875 C 13.519531 -4.6875 14.472656 -5.007812 15.203125 -5.65625 C 15.941406 -6.300781 16.328125 -7.160156 16.359375 -8.234375 L 22.3125 -8.234375 C 22.300781 -6.617188 21.863281 -5.140625 21 -3.796875 C 20.132812 -2.453125 18.945312 -1.410156 17.4375 -0.671875 C 15.9375 0.0664062 14.273438 0.4375 12.453125 0.4375 C 9.054688 0.4375 6.375 -0.640625 4.40625 -2.796875 C 2.4375 -4.960938 1.453125 -7.957031 1.453125 -11.78125 L 1.453125 -12.1875 C 1.453125 -15.863281 2.425781 -18.789062 4.375 -20.96875 C 6.332031 -23.15625 9.015625 -24.25 12.421875 -24.25 C 15.390625 -24.25 17.773438 -23.398438 19.578125 -21.703125 C 21.378906 -20.015625 22.289062 -17.765625 22.3125 -14.953125 L 16.359375 -14.953125 C 16.328125 -16.179688 15.941406 -17.179688 15.203125 -17.953125 C 14.472656 -18.722656 13.503906 -19.109375 12.296875 -19.109375 C 10.816406 -19.109375 9.695312 -18.566406 8.9375 -17.484375 C 8.1875 -16.410156 7.8125 -14.660156 7.8125 -12.234375 L 7.8125 -11.578125 C 7.8125 -9.128906 8.1875 -7.367188 8.9375 -6.296875 C 9.6875 -5.222656 10.820312 -4.6875 12.34375 -4.6875 Z M 12.34375 -4.6875 "/></g></g></g><g fill="#000000" fill-opacity="1"><g transform="translate(312.923309, 60.637515)"><g><path d="M 11.09375 -9.546875 L 8.796875 -7.265625 L 8.796875 0 L 2.4375 0 L 2.4375 -33.8125 L 8.796875 -33.8125 L 8.796875 -15.078125 L 10.03125 -16.65625 L 16.140625 -23.8125 L 23.765625 -23.8125 L 15.171875 -13.890625 L 24.515625 0 L 17.21875 0 Z M 11.09375 -9.546875 "/></g></g></g></g></g></g></g></g></g></mask><clipPath id="9f9548e516"><path d="M 0.222656 0 L 352 0 L 352 75 L 0.222656 75 Z M 0.222656 0 " clip-rule="nonzero"/></clipPath><clipPath id="11f4559beb"><rect x="0" width="352" y="0" height="75"/></clipPath><clipPath id="460d0d7b4c"><rect x="0" width="352" y="0" height="75"/></clipPath><clipPath id="83299c47da"><rect x="0" width="354" y="0" height="75"/></clipPath><clipPath id="85b2224df0"><path d="M 68 2.003906 L 74 2.003906 L 74 13 L 68 13 Z M 68 2.003906 " clip-rule="nonzero"/></clipPath><clipPath id="5e03a63e60"><path d="M 85 25 L 96 25 L 96 30 L 85 30 Z M 85 25 " clip-rule="nonzero"/></clipPath><clipPath id="21b2b583bb"><path d="M 0.519531 16 L 82 16 L 82 69 L 0.519531 69 Z M 0.519531 16 " clip-rule="nonzero"/></clipPath><clipPath id="aee0f2c593"><rect x="0" width="358" y="0" height="75"/></clipPath></defs><g transform="matrix(1, 0, 0, 1, 17, -0.000000000000001893)"><g clip-path="url(#aee0f2c593)"><g transform="matrix(1, 0, 0, 1, 4, -0.000000000000001893)"><g clip-path="url(#83299c47da)"><g clip-path="url(#64738759a8)"><g transform="matrix(1, 0, 0, 1, 2, -0.000000000000001893)"><g clip-path="url(#460d0d7b4c)"><g clip-path="url(#5384b6baee)"><g mask="url(#d830ff783a)"><g transform="matrix(1, 0, 0, 1, 0.000000000000003553, -0.000000000000001893)"><g clip-path="url(#11f4559beb)"><g clip-path="url(#9f9548e516)"><path fill="url(#0b7e556b3f)" d="M 0.222656 0 L 0.222656 75 L 352 75 L 352 0 Z M 0.222656 0 " fill-rule="nonzero"/></g></g></g></g></g></g></g></g></g></g><path fill="#7af6ee" d="M 64.59375 35.457031 C 65.277344 35.308594 66 35.226562 66.773438 35.226562 C 68.617188 35.226562 70.558594 35.714844 72.539062 36.679688 C 73.621094 37.203125 74.578125 37.824219 75.417969 38.519531 C 79.957031 36.75 83.183594 32.34375 83.183594 27.183594 C 83.183594 20.464844 77.722656 15 71.015625 15 C 65.941406 15 61.585938 18.121094 59.753906 22.542969 C 62.503906 26.347656 64.160156 30.789062 64.59375 35.457031 " fill-opacity="1" fill-rule="nonzero"/><g clip-path="url(#85b2224df0)"><path fill="#7af6ee" d="M 71.015625 12.230469 C 72.1875 12.230469 73.136719 11.28125 73.136719 10.105469 L 73.136719 4.117188 C 73.136719 2.945312 72.1875 1.996094 71.015625 1.996094 C 69.84375 1.996094 68.890625 2.945312 68.890625 4.117188 L 68.890625 10.105469 C 68.890625 11.28125 69.84375 12.230469 71.015625 12.230469 " fill-opacity="1" fill-rule="nonzero"/></g><path fill="#7af6ee" d="M 83.085938 17.230469 C 83.628906 17.230469 84.175781 17.023438 84.589844 16.609375 L 88.824219 12.371094 C 89.652344 11.542969 89.652344 10.195312 88.824219 9.367188 C 87.996094 8.539062 86.652344 8.539062 85.820312 9.367188 L 81.585938 13.609375 C 80.757812 14.4375 80.757812 15.78125 81.585938 16.609375 C 82 17.023438 82.542969 17.230469 83.085938 17.230469 " fill-opacity="1" fill-rule="nonzero"/><g clip-path="url(#5e03a63e60)"><path fill="#7af6ee" d="M 94.082031 25.058594 L 88.085938 25.058594 C 86.914062 25.058594 85.964844 26.007812 85.964844 27.179688 C 85.964844 28.351562 86.914062 29.300781 88.085938 29.300781 L 94.082031 29.300781 C 95.253906 29.300781 96.203125 28.351562 96.203125 27.179688 C 96.203125 26.007812 95.253906 25.058594 94.082031 25.058594 " fill-opacity="1" fill-rule="nonzero"/></g><path fill="#7af6ee" d="M 84.589844 37.75 C 83.757812 36.925781 82.414062 36.925781 81.585938 37.753906 C 80.757812 38.582031 80.757812 39.925781 81.585938 40.753906 L 85.828125 44.992188 C 86.242188 45.40625 86.785156 45.613281 87.328125 45.613281 C 87.871094 45.613281 88.417969 45.40625 88.832031 44.992188 C 89.660156 44.164062 89.660156 42.820312 88.828125 41.992188 L 84.589844 37.75 " fill-opacity="1" fill-rule="nonzero"/><path fill="#7af6ee" d="M 57.441406 16.609375 C 57.855469 17.023438 58.398438 17.230469 58.941406 17.230469 C 59.484375 17.230469 60.027344 17.023438 60.441406 16.609375 C 61.269531 15.777344 61.269531 14.433594 60.441406 13.605469 L 56.199219 9.375 C 55.371094 8.546875 54.027344 8.546875 53.199219 9.375 C 52.371094 10.207031 52.371094 11.550781 53.199219 12.378906 L 57.441406 16.609375 " fill-opacity="1" fill-rule="nonzero"/><g clip-path="url(#21b2b583bb)"><path fill="#7af6ee" d="M 72.683594 53.195312 C 75.613281 52.21875 78.753906 43.757812 70.945312 39.964844 C 69.347656 39.1875 67.964844 38.878906 66.773438 38.878906 C 62.140625 38.878906 60.425781 43.542969 60.425781 43.542969 C 63.765625 29.078125 53.523438 16.164062 40.738281 16.164062 C 37.328125 16.164062 33.730469 17.085938 30.167969 19.140625 C 13.25 28.898438 20.949219 43.542969 20.949219 43.542969 C 19.207031 42.53125 16.527344 41.699219 13.671875 41.699219 C 8.882812 41.699219 3.601562 44.039062 1.429688 51.785156 C -2.039062 64.148438 9.128906 68.921875 9.128906 68.921875 L 76.261719 68.921875 C 76.261719 68.921875 82.550781 65.882812 80.921875 58.832031 C 79.632812 53.234375 72.683594 53.195312 72.683594 53.195312 " fill-opacity="1" fill-rule="nonzero"/></g></g></g></svg>